<svg width="14" height="14" viewBox="0 0 14 14" fill="none" xmlns="http://www.w3.org/2000/svg">
<path d="M4.17084 12.3084C4.025 12.1625 3.95209 11.9899 3.95209 11.7904C3.95209 11.5913 4.025 11.4188 4.17084 11.273L8.44375 7.00004L4.15625 2.71254C4.02014 2.57643 3.95209 2.40629 3.95209 2.20212C3.95209 1.99796 4.025 1.82296 4.17084 1.67712C4.31667 1.53129 4.48934 1.45837 4.68884 1.45837C4.88795 1.45837 5.06042 1.53129 5.20625 1.67712L10.1063 6.59171C10.1646 6.65004 10.206 6.71323 10.2305 6.78129C10.2546 6.84935 10.2667 6.92226 10.2667 7.00004C10.2667 7.07782 10.2546 7.15073 10.2305 7.21879C10.206 7.28685 10.1646 7.35004 10.1063 7.40837L5.19167 12.323C5.05556 12.4591 4.88795 12.5271 4.68884 12.5271C4.48934 12.5271 4.31667 12.4542 4.17084 12.3084Z" fill="white"/>
</svg>
