<svg width="16" height="16" viewBox="0 0 16 16" fill="none" xmlns="http://www.w3.org/2000/svg">
<g clip-path="url(#clip0_151_35)">
<path d="M15.858 3.12589C15.8148 2.96393 15.6885 2.83736 15.5267 2.79386C15.3648 2.75036 15.1921 2.79658 15.0736 2.91511L13.3989 4.5898L11.7416 4.25836L11.4102 2.60108L13.0849 0.926395C13.2034 0.807895 13.2496 0.635145 13.2061 0.473301C13.1626 0.311426 13.036 0.185114 12.874 0.141989C11.4215 -0.245074 9.86114 0.172583 8.80208 1.23168C7.63742 2.3963 7.26476 4.14061 7.82439 5.6688L0.741169 12.0774C0.2792 12.4954 0.0162 13.0685 0.000637515 13.6913C-0.014925 14.3141 0.219106 14.8997 0.659638 15.3403C1.08642 15.767 1.64929 16 2.25026 16C2.26964 16 2.28911 15.9997 2.30857 15.9993C2.93136 15.9837 3.50454 15.7207 3.92251 15.2587L10.3309 8.1758C10.8003 8.34777 11.2902 8.43171 11.7774 8.43171C12.8762 8.43171 13.9614 8.0048 14.7683 7.19786C15.8274 6.13877 16.2449 4.57846 15.858 3.12589V3.12589ZM2.31692 14.1517C2.05804 14.1517 1.84817 13.9418 1.84817 13.683C1.84817 13.4241 2.05804 13.2142 2.31692 13.2142C2.57579 13.2142 2.78567 13.4241 2.78567 13.683C2.78567 13.9418 2.57582 14.1517 2.31692 14.1517Z" fill="#D93029"/>
</g>
<defs>
<clipPath id="clip0_151_35">
<rect width="16" height="16" fill="white"/>
</clipPath>
</defs>
</svg>
