<svg width="121" height="117" viewBox="0 0 121 117" fill="none" xmlns="http://www.w3.org/2000/svg">
<path d="M98.2238 106.754C80.5245 118.28 56.5876 116.278 41.0561 100.746C23.2252 82.9153 23.2252 54.0059 41.0561 36.1753C58.8869 18.3444 87.7961 18.3444 105.627 36.1753C121.144 51.6922 123.157 75.599 111.668 93.2933M81.4398 22.8022V13.4146H65.1706V22.8022M77.849 63.9532L90.0657 51.7364M98.7673 68.4897H96.5643M47.9157 68.4316H50.1187M73.3705 43.0348V45.2378M73.3124 93.8865V91.6834M69.5805 64.6996L63.1244 58.2435M76.8852 64.917L89.7202 52.0822M29.7662 83.1341H11.5121M27.683 69.2377H14.8413M29.1321 55.3412H2M35.1565 41.4448H18.2103M73.3415 102.973C54.2807 102.973 38.8291 87.5214 38.8291 68.4607C38.8291 49.3999 54.2807 33.9483 73.3415 33.9483C92.4022 33.9483 107.854 49.3999 107.854 68.4607C107.854 87.5214 92.4022 102.973 73.3415 102.973ZM64.7443 13.4146H81.8662C85.0183 13.4146 87.5735 10.8594 87.5735 7.70731C87.5735 4.55521 85.0183 2 81.8662 2H64.7443C61.5922 2 59.037 4.55521 59.037 7.70731C59.037 10.8594 61.5922 13.4146 64.7443 13.4146ZM68.33 68.4607C68.33 71.2285 70.5737 73.4722 73.3415 73.4722C76.1093 73.4722 78.353 71.2285 78.353 68.4607C78.353 65.6928 76.1093 63.4492 73.3415 63.4492C70.5737 63.4492 68.33 65.6928 68.33 68.4607Z" stroke="url(#paint0_linear_77_126)" stroke-width="4" stroke-miterlimit="10" stroke-linecap="round" stroke-linejoin="round"/>
<defs>
<linearGradient id="paint0_linear_77_126" x1="60.5" y1="2" x2="60.5" y2="114.119" gradientUnits="userSpaceOnUse">
<stop stop-color="#E43149"/>
<stop offset="1" stop-color="#E43149" stop-opacity="0.18"/>
</linearGradient>
</defs>
</svg>
