<svg width="25" height="25" viewBox="0 0 25 25" fill="none" xmlns="http://www.w3.org/2000/svg">
<path d="M7.44791 21.9792C7.1875 21.7188 7.05729 21.4104 7.05729 21.0542C7.05729 20.6986 7.1875 20.3906 7.44791 20.1302L15.0781 12.5L7.42187 4.84376C7.17882 4.6007 7.05729 4.29688 7.05729 3.9323C7.05729 3.56771 7.1875 3.25521 7.44791 2.9948C7.70833 2.73438 8.01666 2.60417 8.37291 2.60417C8.72847 2.60417 9.03646 2.73438 9.29687 2.9948L18.0469 11.7708C18.151 11.875 18.225 11.9879 18.2687 12.1094C18.3118 12.2309 18.3333 12.3611 18.3333 12.5C18.3333 12.6389 18.3118 12.7691 18.2687 12.8906C18.225 13.0122 18.151 13.125 18.0469 13.2292L9.27083 22.0052C9.02777 22.2483 8.72847 22.3698 8.37291 22.3698C8.01666 22.3698 7.70833 22.2396 7.44791 21.9792Z" fill="#DD281F"/>
</svg>
