<svg width="85" height="85" viewBox="0 0 85 85" fill="none" xmlns="http://www.w3.org/2000/svg">
<path d="M13.6424 67.7467C13.9656 67.3882 14.4411 66.9842 15.0699 66.5348C15.6976 66.0863 16.3805 65.6378 17.1168 65.1883C17.8524 64.7397 18.5979 64.2994 19.3522 63.8686C20.1065 63.4376 20.7527 63.0606 21.2912 62.7375C22.0808 62.2712 22.8534 61.7595 23.6075 61.2026C24.3617 60.6461 25.0432 59.9998 25.6543 59.2635C26.2646 58.5279 26.7586 57.6931 27.1355 56.7588C27.5127 55.8253 27.701 54.7656 27.701 53.5807C27.701 50.7082 26.6685 48.4283 24.6039 46.7399C22.5385 45.0525 19.5676 44.2081 15.6895 44.2081C14.1089 44.2081 12.5923 44.3522 11.1378 44.6391C9.68354 44.927 8.34528 45.3125 7.1249 45.7972C5.90352 46.2822 4.80864 46.8299 3.8391 47.4401C2.86957 48.0511 2.09709 48.6789 1.52301 49.3252L7.01715 55.6812C8.05824 54.4962 9.13552 53.5359 10.249 52.7995C11.3618 52.064 12.6728 51.6953 14.1811 51.6953C15.5092 51.6953 16.5327 52.0008 17.2514 52.611C17.9692 53.2222 18.3287 54.03 18.3287 55.0349C18.3287 55.5381 18.1847 55.9774 17.8979 56.3545C17.61 56.7316 17.1345 57.1541 16.4703 57.6203C15.8054 58.0874 14.9081 58.626 13.777 59.2363C12.6459 59.8474 11.2361 60.619 9.54857 61.5523C7.96809 62.4503 6.65773 63.3661 5.61647 64.2993C4.57456 65.2336 3.74879 66.2476 3.13885 67.3428C2.52791 68.4385 2.09709 69.6506 1.84608 70.9787C1.5944 72.3077 1.46906 73.816 1.46906 75.5034H28.2936V67.7467H13.6424Z" fill="url(#paint0_linear_52_316)"/>
<path d="M55.0095 67.208V44.7467H49.1383L31.5786 67.262V74.9647H46.3912V82.3441H55.0095V74.9647H59.7496V67.208H55.0095ZM47.4146 67.2082H40.0891L47.4146 57.6742V67.2082Z" fill="url(#paint1_linear_52_316)"/>
<path d="M6.4806 77.4714V80.3551H3.51322V77.4714H1.79346V84.9163H3.51322V81.8649H6.4806V84.9163H8.20036V77.4714H6.4806Z" fill="url(#paint2_linear_52_316)"/>
<path d="M17.9097 79.8305C17.7352 79.3763 17.4871 78.9707 17.1656 78.6143C16.8438 78.2577 16.456 77.9715 16.0016 77.7545C15.5471 77.5379 15.0439 77.4294 14.4915 77.4294C13.9533 77.4294 13.4569 77.5327 13.0025 77.7387C12.548 77.9451 12.1549 78.2212 11.8227 78.567C11.4906 78.913 11.2318 79.3134 11.0467 79.7678C10.8613 80.2223 10.7688 80.6942 10.7688 81.1834C10.7688 81.6657 10.8579 82.1342 11.0363 82.5884C11.2146 83.0429 11.4642 83.4467 11.7858 83.7995C12.1074 84.1524 12.4954 84.4375 12.9498 84.654C13.4041 84.8706 13.9073 84.979 14.4598 84.979C14.9981 84.979 15.4943 84.8743 15.9488 84.6643C16.4032 84.4548 16.7947 84.1767 17.1232 83.8309C17.4519 83.4849 17.7086 83.0845 17.8939 82.6301C18.0792 82.1757 18.1718 81.7039 18.1718 81.2145C18.1718 80.7465 18.0843 80.2849 17.9097 79.8305ZM16.3005 82.0065C16.2199 82.2758 16.0994 82.5168 15.9385 82.73C15.7778 82.9433 15.575 83.1163 15.3306 83.2493C15.0857 83.382 14.7992 83.4485 14.4706 83.4485C14.156 83.4485 13.8765 83.3856 13.6317 83.2599C13.3869 83.1341 13.1825 82.9661 13.0183 82.7566C12.8541 82.5471 12.7301 82.3075 12.6461 82.0384C12.5621 81.7693 12.5203 81.4915 12.5203 81.2048C12.5203 80.9252 12.5604 80.6508 12.641 80.3815C12.7215 80.1126 12.8435 79.873 13.0079 79.6634C13.1722 79.4537 13.3748 79.2842 13.616 79.1549C13.8572 79.0255 14.1421 78.9608 14.4705 78.9608C14.7851 78.9608 15.0628 79.022 15.304 79.1444C15.5451 79.2667 15.7496 79.4313 15.9173 79.6371C16.085 79.8435 16.211 80.0812 16.2948 80.3502C16.3787 80.6193 16.4207 80.8974 16.4207 81.1837C16.4212 81.4631 16.3808 81.7376 16.3005 82.0065Z" fill="url(#paint3_linear_52_316)"/>
<path d="M25.5233 77.4716V81.2777H25.5228C25.5228 81.5505 25.4966 81.8177 25.4441 82.0799C25.3917 82.342 25.3025 82.5744 25.1769 82.7772C25.051 82.9799 24.8867 83.1426 24.684 83.2647C24.4814 83.3873 24.2331 83.4484 23.9395 83.4484C23.6459 83.4484 23.3995 83.3889 23.2003 83.2701C23.0009 83.1514 22.8383 82.9903 22.7127 82.7876C22.5868 82.5852 22.4959 82.3543 22.4399 82.0957C22.3838 81.837 22.3561 81.5646 22.3561 81.2777V77.4714H20.6365V81.2777C20.6365 81.7671 20.6976 82.2354 20.8199 82.6827C20.9423 83.1303 21.1347 83.5232 21.3968 83.8626C21.659 84.2019 21.9998 84.4725 22.4192 84.675C22.8387 84.8778 23.3454 84.9792 23.9397 84.9792C24.5128 84.9792 25.0074 84.8832 25.4236 84.6908C25.8393 84.4986 26.1819 84.2346 26.451 83.8993C26.7201 83.5636 26.9194 83.1723 27.0489 82.7249C27.1782 82.2776 27.2429 81.7952 27.2429 81.2779V77.4716H25.5233Z" fill="url(#paint4_linear_52_316)"/>
<path d="M34.7187 82.1482C34.9073 82.0432 35.0768 81.9157 35.2273 81.7653C35.3776 81.6149 35.5051 81.4454 35.61 81.2568C35.7148 81.0681 35.7953 80.867 35.8512 80.6537C35.907 80.4405 35.9351 80.2186 35.9351 79.988C35.9351 79.6802 35.8738 79.3762 35.7515 79.0755C35.6291 78.775 35.4596 78.5059 35.2429 78.2684C35.0261 78.0308 34.7693 77.8384 34.4723 77.6915C34.1751 77.5449 33.8519 77.4713 33.5024 77.4713H30.1469V84.9163H31.8665V82.5151H32.9884L34.4145 84.9163H36.3543L34.7187 82.1482ZM33.9638 80.7272C33.817 80.9196 33.6421 81.0156 33.4395 81.0156H31.8667V78.9814H33.3872C33.5826 78.9814 33.7647 79.0724 33.9324 79.2542C34.1001 79.436 34.1841 79.6807 34.1841 79.9883C34.1839 80.2886 34.1105 80.5351 33.9638 80.7272Z" fill="url(#paint5_linear_52_316)"/>
<path d="M44.0252 81.8436C43.9166 81.5994 43.763 81.3914 43.5638 81.2201C43.3644 81.0487 43.1215 80.9053 42.835 80.7901C42.5481 80.6747 42.2269 80.5683 41.8703 80.4702C41.6115 80.4004 41.3843 80.3375 41.1888 80.2816C40.993 80.2258 40.8305 80.1645 40.7012 80.098C40.5717 80.0316 40.4739 79.9563 40.4075 79.8725C40.3408 79.7887 40.3077 79.6839 40.3077 79.5579C40.3077 79.1455 40.6154 78.9392 41.2304 78.9392C41.4539 78.9392 41.6779 78.9707 41.9016 79.0336C42.1251 79.0965 42.3315 79.1701 42.5204 79.2538C42.709 79.3376 42.8662 79.4183 42.9922 79.495C43.1179 79.572 43.1914 79.6245 43.2123 79.6524L43.9674 78.2263C43.7997 78.1285 43.6161 78.0309 43.4169 77.9326C43.2177 77.8348 43.0027 77.7473 42.7719 77.6705C42.5413 77.5936 42.3001 77.5308 42.0484 77.4819C41.7967 77.4331 41.5416 77.4083 41.2831 77.4083C40.9124 77.4083 40.5612 77.461 40.2294 77.5657C39.8973 77.6705 39.6053 77.8262 39.354 78.0322C39.1023 78.2386 38.9031 78.4921 38.7561 78.7926C38.6094 79.0934 38.536 79.4394 38.536 79.8308C38.536 80.1106 38.576 80.3551 38.6565 80.5648C38.737 80.7745 38.8591 80.9597 39.0234 81.1206C39.1878 81.2815 39.3956 81.4231 39.6475 81.5453C39.8992 81.6678 40.1963 81.7812 40.5388 81.8863C40.7975 81.9632 41.0369 82.0329 41.257 82.0958C41.4773 82.1587 41.6677 82.2269 41.8284 82.3003C41.989 82.3737 42.1151 82.4559 42.206 82.5467C42.2966 82.6375 42.3424 82.7529 42.3424 82.8927C42.3424 83.2632 42.0383 83.4485 41.4302 83.4485C41.1433 83.4485 40.8602 83.41 40.5807 83.3331C40.3011 83.2563 40.0474 83.1688 39.8203 83.071C39.593 82.9732 39.4024 82.8754 39.2489 82.7771C39.0951 82.6795 39.0042 82.6129 38.9761 82.5779L38.2211 84.0774C38.4377 84.224 38.6736 84.3535 38.9288 84.4652C39.184 84.5771 39.4481 84.6732 39.7205 84.7536C39.9931 84.8339 40.2725 84.8952 40.5594 84.937C40.8461 84.979 41.1255 84.9999 41.3983 84.9999C41.7549 84.9999 42.1009 84.9596 42.4366 84.8792C42.7721 84.7989 43.0691 84.6695 43.3279 84.4914C43.5865 84.3131 43.7944 84.079 43.9518 83.7888C44.1092 83.4988 44.1877 83.1439 44.1877 82.7245C44.1875 82.382 44.1336 82.0885 44.0252 81.8436Z" fill="url(#paint6_linear_52_316)"/>
<path d="M47.564 40.1503C47.096 38.2941 45.6321 36.83 43.7759 36.3622V13.4579H41.224V36.3623C38.9592 36.9333 37.2776 38.9869 37.2776 41.4263C37.2776 44.306 39.6205 46.6485 42.4999 46.6485C44.9395 46.6485 46.9929 44.9668 47.5639 42.7022H62.7467V40.1503H47.564ZM42.5 44.0967C41.0276 44.0967 39.8297 42.8987 39.8297 41.4263C39.8297 39.9539 41.0276 38.7559 42.5 38.7559C43.9724 38.7559 45.1704 39.9539 45.1704 41.4263C45.1704 42.8987 43.9724 44.0967 42.5 44.0967Z" fill="url(#paint7_linear_52_316)"/>
<path d="M79.2809 60.5045C82.3198 54.6574 83.9263 48.0601 83.9263 41.4262C83.9263 30.3609 79.6172 19.9578 71.7931 12.1331C63.9684 4.30912 53.5653 0 42.5 0C31.4347 0 21.0314 4.30912 13.2069 12.1333C5.38273 19.9578 1.07361 30.3611 1.07361 41.4264V42.7024H8.86973V40.1505H3.64603C3.84957 33.8683 5.5524 27.9593 8.40522 22.7675L12.8955 25.4201L14.1934 23.223L9.70529 20.5716C12.7819 15.7503 16.8926 11.651 21.7214 8.58503L24.3617 13.0779L26.5618 11.785L23.9198 7.28911C29.0925 4.46252 34.9738 2.77745 41.2241 2.57491V7.79612H43.776V2.57491C50.0577 2.77861 55.9674 4.47879 61.159 7.33144L58.5063 11.8219L60.7032 13.1198L63.3539 8.63251C68.1751 11.7091 72.275 15.8192 75.341 20.6478L70.8479 23.2879L72.1409 25.488L76.6384 22.8453C79.4652 28.0181 81.1486 33.9002 81.3513 40.1505H76.1302V42.7024H81.3516C81.1477 48.8398 79.4801 54.7895 76.5859 60.0801L72.1043 57.4327L70.8064 59.6297L75.2865 62.2764C73.2146 65.5396 70.6537 68.5043 67.6674 71.0485L68.0124 67.938L65.4761 67.6566L64.6494 75.1097L72.1025 75.9365L72.3839 73.4003L69.2495 73.0525C73.3626 69.565 76.8008 65.2768 79.2809 60.5045Z" fill="url(#paint8_linear_52_316)"/>
<defs>
<linearGradient id="paint0_linear_52_316" x1="14.8813" y1="44.2081" x2="14.8813" y2="75.5034" gradientUnits="userSpaceOnUse">
<stop stop-color="#0F3675"/>
<stop offset="1" stop-color="#0F3675" stop-opacity="0.63"/>
</linearGradient>
<linearGradient id="paint1_linear_52_316" x1="45.6641" y1="44.7467" x2="45.6641" y2="82.3441" gradientUnits="userSpaceOnUse">
<stop stop-color="#0F3675"/>
<stop offset="1" stop-color="#0F3675" stop-opacity="0.63"/>
</linearGradient>
<linearGradient id="paint2_linear_52_316" x1="4.99691" y1="77.4714" x2="4.99691" y2="84.9163" gradientUnits="userSpaceOnUse">
<stop stop-color="#0F3675"/>
<stop offset="1" stop-color="#0F3675" stop-opacity="0.63"/>
</linearGradient>
<linearGradient id="paint3_linear_52_316" x1="14.4703" y1="77.4294" x2="14.4703" y2="84.979" gradientUnits="userSpaceOnUse">
<stop stop-color="#0F3675"/>
<stop offset="1" stop-color="#0F3675" stop-opacity="0.63"/>
</linearGradient>
<linearGradient id="paint4_linear_52_316" x1="23.9397" y1="77.4714" x2="23.9397" y2="84.9792" gradientUnits="userSpaceOnUse">
<stop stop-color="#0F3675"/>
<stop offset="1" stop-color="#0F3675" stop-opacity="0.63"/>
</linearGradient>
<linearGradient id="paint5_linear_52_316" x1="33.2506" y1="77.4713" x2="33.2506" y2="84.9163" gradientUnits="userSpaceOnUse">
<stop stop-color="#0F3675"/>
<stop offset="1" stop-color="#0F3675" stop-opacity="0.63"/>
</linearGradient>
<linearGradient id="paint6_linear_52_316" x1="41.2044" y1="77.4083" x2="41.2044" y2="84.9999" gradientUnits="userSpaceOnUse">
<stop stop-color="#0F3675"/>
<stop offset="1" stop-color="#0F3675" stop-opacity="0.63"/>
</linearGradient>
<linearGradient id="paint7_linear_52_316" x1="50.0122" y1="13.4579" x2="50.0122" y2="46.6485" gradientUnits="userSpaceOnUse">
<stop stop-color="#0F3675"/>
<stop offset="1" stop-color="#0F3675" stop-opacity="0.63"/>
</linearGradient>
<linearGradient id="paint8_linear_52_316" x1="42.5" y1="0" x2="42.5" y2="75.9365" gradientUnits="userSpaceOnUse">
<stop stop-color="#0F3675"/>
<stop offset="1" stop-color="#0F3675" stop-opacity="0.63"/>
</linearGradient>
</defs>
</svg>
