<svg width="85" height="85" viewBox="0 0 85 85" fill="none" xmlns="http://www.w3.org/2000/svg">
<g clip-path="url(#clip0_52_290)">
<path d="M7.12585 49.5833C3.2201 49.5833 0.042511 46.4057 0.042511 42.5C0.042511 38.5942 3.2201 35.4166 7.12585 35.4166C11.0316 35.4166 14.2092 38.5942 14.2092 42.5C14.2092 46.4057 11.0316 49.5833 7.12585 49.5833ZM7.12585 38.25C4.78268 38.25 2.87585 40.1568 2.87585 42.5C2.87585 44.8431 4.78268 46.75 7.12585 46.75C9.46902 46.75 11.3758 44.8431 11.3758 42.5C11.3758 40.1568 9.46902 38.25 7.12585 38.25Z" fill="url(#paint0_linear_52_290)"/>
<path d="M77.9592 49.5833C74.0535 49.5833 70.8759 46.4057 70.8759 42.5C70.8759 38.5942 74.0535 35.4166 77.9592 35.4166C81.865 35.4166 85.0426 38.5942 85.0426 42.5C85.0426 46.4057 81.865 49.5833 77.9592 49.5833ZM77.9592 38.25C75.6161 38.25 73.7092 40.1568 73.7092 42.5C73.7092 44.8431 75.6161 46.75 77.9592 46.75C80.3024 46.75 82.2092 44.8431 82.2092 42.5C82.2092 40.1568 80.3024 38.25 77.9592 38.25Z" fill="url(#paint1_linear_52_290)"/>
<path d="M42.5425 84.9999C38.6367 84.9999 35.4591 81.8223 35.4591 77.9166C35.4591 74.0108 38.6367 70.8333 42.5425 70.8333C46.4482 70.8333 49.6258 74.0108 49.6258 77.9166C49.6258 81.8223 46.4482 84.9999 42.5425 84.9999ZM42.5425 73.6666C40.1993 73.6666 38.2925 75.5734 38.2925 77.9166C38.2925 80.2598 40.1993 82.1666 42.5425 82.1666C44.8856 82.1666 46.7925 80.2598 46.7925 77.9166C46.7925 75.5734 44.8856 73.6666 42.5425 73.6666Z" fill="url(#paint2_linear_52_290)"/>
<path d="M42.5425 14.1667C38.6367 14.1667 35.4591 10.9891 35.4591 7.08334C35.4591 3.17758 38.6367 0 42.5425 0C46.4482 0 49.6258 3.17758 49.6258 7.08334C49.6258 10.9891 46.4482 14.1667 42.5425 14.1667ZM42.5425 2.83333C40.1993 2.83333 38.2925 4.74017 38.2925 7.08334C38.2925 9.4265 40.1993 11.3333 42.5425 11.3333C44.8856 11.3333 46.7925 9.4265 46.7925 7.08334C46.7925 4.74017 44.8856 2.83333 42.5425 2.83333Z" fill="url(#paint3_linear_52_290)"/>
<path d="M77.5072 38.2953C76.8243 38.2953 76.2208 37.7981 76.1103 37.1011C75.6797 34.4094 74.926 31.7744 73.8678 29.2726C73.5632 28.5515 73.8989 27.7199 74.62 27.4153C75.3425 27.1093 76.1727 27.4465 76.4773 28.1676C77.6248 30.8805 78.4436 33.7365 78.9083 36.6548C79.0315 37.4269 78.5059 38.1537 77.7324 38.2769C77.6573 38.2897 77.5823 38.2953 77.5072 38.2953Z" fill="url(#paint4_linear_52_290)"/>
<path d="M70.5855 22.2884C70.1619 22.2884 69.7426 22.0985 69.4635 21.7373C67.6813 19.4295 65.6059 17.3541 63.2939 15.5691C62.6748 15.0917 62.56 14.202 63.0389 13.583C63.5177 12.9639 64.4074 12.8505 65.0265 13.328C67.5297 15.2603 69.7766 17.5071 71.7061 20.0061C72.1835 20.6266 72.0701 21.5149 71.4511 21.9923C71.1918 22.192 70.8886 22.2884 70.5855 22.2884Z" fill="url(#paint5_linear_52_290)"/>
<path d="M56.321 11.2866C56.1368 11.2866 55.9498 11.2512 55.7699 11.1747C53.268 10.1164 50.633 9.36132 47.94 8.93066C47.1679 8.80741 46.6409 8.08066 46.7641 7.30715C46.8874 6.53507 47.6155 6.00665 48.3862 6.13274C51.306 6.59882 54.1605 7.41765 56.8735 8.56516C57.5945 8.86974 57.9317 9.70132 57.6257 10.4224C57.3976 10.9622 56.8735 11.2866 56.321 11.2866Z" fill="url(#paint6_linear_52_290)"/>
<path d="M48.1624 78.8857C47.4782 78.8857 46.8761 78.3884 46.7656 77.6928C46.6423 76.9193 47.1679 76.1926 47.9414 76.0693C50.6345 75.6387 53.2695 74.8836 55.7714 73.8253C56.4939 73.5222 57.324 73.8551 57.6286 74.5776C57.9332 75.2987 57.5974 76.1303 56.8763 76.4348C54.1634 77.5823 51.3089 78.4012 48.3891 78.8673C48.3112 78.88 48.2361 78.8857 48.1624 78.8857Z" fill="url(#paint7_linear_52_290)"/>
<path d="M64.1708 71.9596C63.7472 71.9596 63.3279 71.7698 63.0488 71.4086C62.5714 70.7881 62.6847 69.8998 63.3038 69.4224C65.613 67.6388 67.6884 65.562 69.472 63.2514C69.948 62.6309 70.8376 62.519 71.4581 62.995C72.0786 63.4738 72.192 64.3635 71.7146 64.9826C69.7836 67.4858 67.5368 69.7341 65.0364 71.6636C64.7786 71.8633 64.474 71.9596 64.1708 71.9596Z" fill="url(#paint8_linear_52_290)"/>
<path d="M75.1711 57.6966C74.9869 57.6966 74.7999 57.6611 74.62 57.5846C73.8989 57.2801 73.5618 56.4485 73.8678 55.7274C74.926 53.2242 75.6811 50.5906 76.1104 47.8989C76.2322 47.1254 76.9618 46.597 77.7324 46.7231C78.5045 46.8463 79.0315 47.5731 78.9083 48.3452C78.4422 51.2649 77.6248 54.1195 76.4773 56.8324C76.2492 57.3721 75.7236 57.6966 75.1711 57.6966Z" fill="url(#paint9_linear_52_290)"/>
<path d="M9.91242 57.6966C9.35992 57.6966 8.83576 57.3721 8.60767 56.8324C7.46017 54.1195 6.64134 51.2635 6.17667 48.3452C6.05342 47.5731 6.579 46.8463 7.35251 46.7231C8.11751 46.597 8.85276 47.1254 8.97459 47.8989C9.40526 50.5906 10.1589 53.2256 11.2172 55.7274C11.5218 56.4485 11.186 57.2801 10.4649 57.5846C10.2836 57.6597 10.0966 57.6966 9.91242 57.6966Z" fill="url(#paint10_linear_52_290)"/>
<path d="M20.9241 71.9681C20.621 71.9681 20.3164 71.8718 20.0586 71.672C17.5553 69.7397 15.3085 67.4929 13.379 64.9939C12.9016 64.3734 13.0149 63.4851 13.634 63.0077C14.2531 62.5289 15.1413 62.6422 15.6216 63.2627C17.4037 65.5704 19.4791 67.6459 21.7911 69.4309C22.4102 69.9083 22.525 70.7979 22.0461 71.417C21.7671 71.7783 21.3477 71.9681 20.9241 71.9681Z" fill="url(#paint11_linear_52_290)"/>
<path d="M36.9226 78.8857C36.8489 78.8857 36.7738 78.88 36.6973 78.8673C33.7776 78.4012 30.923 77.5823 28.2101 76.4348C27.489 76.1303 27.1518 75.2987 27.4578 74.5776C27.7624 73.8551 28.5926 73.5222 29.3151 73.8253C31.8169 74.8836 34.4519 75.6387 37.145 76.0693C37.9171 76.1926 38.4441 76.9193 38.3208 77.6928C38.2089 78.3884 37.6068 78.8857 36.9226 78.8857Z" fill="url(#paint12_linear_52_290)"/>
<path d="M28.764 11.2865C28.2115 11.2865 27.6873 10.9621 27.4593 10.4224C27.1547 9.70129 27.4904 8.8697 28.2115 8.56512C30.9244 7.41762 33.779 6.59878 36.6987 6.1327C37.4708 6.00662 38.1976 6.53645 38.3208 7.30712C38.4441 8.08062 37.9185 8.80737 37.145 8.93062C34.4519 9.36129 31.8169 10.1164 29.3151 11.1746C29.1338 11.2497 28.9482 11.2865 28.764 11.2865Z" fill="url(#paint13_linear_52_290)"/>
<path d="M14.4911 22.2997C14.1893 22.2997 13.8848 22.2034 13.6269 22.005C13.0064 21.5262 12.8931 20.6365 13.3705 20.0174C15.3014 17.5142 17.5483 15.2659 20.0487 13.3364C20.6678 12.859 21.556 12.9709 22.0363 13.5914C22.5137 14.2119 22.4004 15.1002 21.7813 15.5776C19.4721 17.3612 17.3967 19.438 15.6131 21.7486C15.334 22.1099 14.9147 22.2997 14.4911 22.2997Z" fill="url(#paint14_linear_52_290)"/>
<path d="M7.57635 38.2953C7.50126 38.2953 7.4276 38.2897 7.3511 38.2769C6.57901 38.1537 6.05201 37.4269 6.17526 36.6548C6.64134 33.7351 7.45876 30.8805 8.60626 28.1676C8.91085 27.4465 9.74101 27.1093 10.4635 27.4153C11.1846 27.7199 11.5218 28.5515 11.2158 29.2726C10.1575 31.7758 9.40243 34.4094 8.97318 37.1011C8.86268 37.7995 8.2606 38.2953 7.57635 38.2953Z" fill="url(#paint15_linear_52_290)"/>
<path d="M31.2092 48.1667C30.9924 48.1667 30.7757 48.1171 30.5759 48.0179L19.2426 42.3513C18.7623 42.1104 18.4592 41.6203 18.4592 41.0834V29.75C18.4592 29.2584 18.7142 28.8037 19.1307 28.5444C19.5486 28.2838 20.0713 28.2639 20.5091 28.4821L31.8424 34.1488C32.3227 34.3896 32.6258 34.8798 32.6258 35.4167V46.75C32.6258 47.2416 32.3708 47.6964 31.9543 47.9556C31.7263 48.0959 31.467 48.1667 31.2092 48.1667ZM21.2925 40.2079L29.7925 44.4579V36.2922L21.2925 32.0422V40.2079Z" fill="url(#paint16_linear_52_290)"/>
<path d="M31.2092 48.1667C30.9499 48.1667 30.6921 48.0959 30.464 47.9556C30.0475 47.6964 29.7925 47.2416 29.7925 46.75V35.4167C29.7925 34.8798 30.0957 34.3896 30.5759 34.1488L41.9093 28.4821C42.3484 28.2639 42.8698 28.2838 43.2877 28.5444C43.7042 28.8037 43.9592 29.2584 43.9592 29.75V41.0834C43.9592 41.6203 43.656 42.1104 43.1758 42.3513L31.8424 48.0179C31.6427 48.1171 31.4259 48.1667 31.2092 48.1667ZM32.6258 36.2922V44.4579L41.1258 40.2079V32.0422L32.6258 36.2922Z" fill="url(#paint17_linear_52_290)"/>
<path d="M31.2092 36.8334C30.9924 36.8334 30.7743 36.7838 30.5759 36.6846L19.2426 31.018C18.7623 30.7771 18.4592 30.287 18.4592 29.75C18.4592 29.2131 18.7623 28.723 19.2426 28.4821L30.5759 22.8155C30.974 22.6157 31.4443 22.6157 31.8438 22.8155L43.1772 28.4821C43.6574 28.723 43.9606 29.2131 43.9606 29.75C43.9606 30.287 43.6574 30.7771 43.1772 31.018L31.8438 36.6846C31.6427 36.7838 31.4259 36.8334 31.2092 36.8334ZM23.0435 29.75L31.2092 33.8329L39.3748 29.75L31.2092 25.6672L23.0435 29.75Z" fill="url(#paint18_linear_52_290)"/>
<path d="M53.8758 48.1667C53.6591 48.1667 53.4423 48.1171 53.2426 48.0179L41.9092 42.3513C41.429 42.1104 41.1258 41.6203 41.1258 41.0834V29.75C41.1258 29.2584 41.3808 28.8037 41.7973 28.5444C42.2152 28.2838 42.738 28.2639 43.1757 28.4821L54.5091 34.1488C54.9893 34.3896 55.2925 34.8798 55.2925 35.4167V46.75C55.2925 47.2416 55.0375 47.6964 54.621 47.9556C54.3929 48.0959 54.1337 48.1667 53.8758 48.1667ZM43.9592 40.2079L52.4592 44.4579V36.2922L43.9592 32.0422V40.2079Z" fill="url(#paint19_linear_52_290)"/>
<path d="M53.8758 48.1667C53.6166 48.1667 53.3588 48.0959 53.1307 47.9556C52.7142 47.6964 52.4592 47.2416 52.4592 46.75V35.4167C52.4592 34.8798 52.7623 34.3896 53.2426 34.1488L64.5759 28.4821C65.0151 28.2639 65.5364 28.2838 65.9543 28.5444C66.3708 28.8037 66.6258 29.2584 66.6258 29.75V41.0834C66.6258 41.6203 66.3227 42.1104 65.8424 42.3513L54.5091 48.0179C54.3093 48.1171 54.0926 48.1667 53.8758 48.1667ZM55.2925 36.2922V44.4579L63.7925 40.2079V32.0422L55.2925 36.2922Z" fill="url(#paint20_linear_52_290)"/>
<path d="M53.8758 36.8334C53.6591 36.8334 53.4409 36.7838 53.2426 36.6846L41.9092 31.018C41.429 30.7771 41.1258 30.287 41.1258 29.75C41.1258 29.2131 41.429 28.723 41.9092 28.4821L53.2426 22.8155C53.6407 22.6157 54.111 22.6157 54.5105 22.8155L65.8438 28.4821C66.3241 28.723 66.6272 29.2131 66.6272 29.75C66.6272 30.287 66.3241 30.7771 65.8438 31.018L54.5105 36.6846C54.3093 36.7838 54.0926 36.8334 53.8758 36.8334ZM45.7102 29.75L53.8758 33.8329L62.0415 29.75L53.8758 25.6672L45.7102 29.75Z" fill="url(#paint21_linear_52_290)"/>
<path d="M42.5425 65.1667C42.3258 65.1667 42.109 65.1171 41.9093 65.0179L30.5759 59.3513C30.0957 59.1104 29.7925 58.6203 29.7925 58.0834V46.75C29.7925 46.2584 30.0475 45.8037 30.464 45.5444C30.8819 45.2838 31.4033 45.2639 31.8424 45.4821L43.1758 51.1488C43.656 51.3896 43.9592 51.8798 43.9592 52.4167V63.75C43.9592 64.2416 43.7042 64.6964 43.2877 64.9556C43.0596 65.0959 42.8003 65.1667 42.5425 65.1667ZM32.6258 57.2079L41.1258 61.4579V53.2922L32.6258 49.0422V57.2079Z" fill="url(#paint22_linear_52_290)"/>
<path d="M42.5425 65.1667C42.2832 65.1667 42.0254 65.0959 41.7973 64.9556C41.3808 64.6964 41.1258 64.2416 41.1258 63.75V52.4167C41.1258 51.8798 41.429 51.3896 41.9092 51.1488L53.2426 45.4821C53.6817 45.2639 54.2031 45.2838 54.621 45.5444C55.0375 45.8037 55.2925 46.2584 55.2925 46.75V58.0834C55.2925 58.6203 54.9893 59.1104 54.5091 59.3513L43.1757 65.0179C42.976 65.1171 42.7592 65.1667 42.5425 65.1667ZM43.9592 53.2922V61.4579L52.4592 57.2079V49.0422L43.9592 53.2922Z" fill="url(#paint23_linear_52_290)"/>
<path d="M42.5425 53.8333C42.3258 53.8333 42.1076 53.7837 41.9093 53.6845L30.5759 48.0178C30.0957 47.777 29.7925 47.2868 29.7925 46.7499C29.7925 46.213 30.0957 45.7228 30.5759 45.482L41.9093 39.8153C42.3073 39.6156 42.7777 39.6156 43.1772 39.8153L54.5105 45.482C54.9908 45.7228 55.2939 46.213 55.2939 46.7499C55.2939 47.2868 54.9908 47.777 54.5105 48.0178L43.1772 53.6845C42.976 53.7837 42.7593 53.8333 42.5425 53.8333ZM34.3768 46.7499L42.5425 50.8328L50.7082 46.7499L42.5425 42.6671L34.3768 46.7499Z" fill="url(#paint24_linear_52_290)"/>
</g>
<defs>
<linearGradient id="paint0_linear_52_290" x1="7.12585" y1="35.4166" x2="7.12585" y2="49.5833" gradientUnits="userSpaceOnUse">
<stop stop-color="#0F3675"/>
<stop offset="1" stop-color="#0F3675" stop-opacity="0.63"/>
</linearGradient>
<linearGradient id="paint1_linear_52_290" x1="77.9592" y1="35.4166" x2="77.9592" y2="49.5833" gradientUnits="userSpaceOnUse">
<stop stop-color="#0F3675"/>
<stop offset="1" stop-color="#0F3675" stop-opacity="0.63"/>
</linearGradient>
<linearGradient id="paint2_linear_52_290" x1="42.5425" y1="70.8333" x2="42.5425" y2="84.9999" gradientUnits="userSpaceOnUse">
<stop stop-color="#0F3675"/>
<stop offset="1" stop-color="#0F3675" stop-opacity="0.63"/>
</linearGradient>
<linearGradient id="paint3_linear_52_290" x1="42.5425" y1="0" x2="42.5425" y2="14.1667" gradientUnits="userSpaceOnUse">
<stop stop-color="#0F3675"/>
<stop offset="1" stop-color="#0F3675" stop-opacity="0.63"/>
</linearGradient>
<linearGradient id="paint4_linear_52_290" x1="76.3408" y1="27.3024" x2="76.3408" y2="38.2953" gradientUnits="userSpaceOnUse">
<stop stop-color="#0F3675"/>
<stop offset="1" stop-color="#0F3675" stop-opacity="0.63"/>
</linearGradient>
<linearGradient id="paint5_linear_52_290" x1="67.3722" y1="13.0327" x2="67.3722" y2="22.2884" gradientUnits="userSpaceOnUse">
<stop stop-color="#0F3675"/>
<stop offset="1" stop-color="#0F3675" stop-opacity="0.63"/>
</linearGradient>
<linearGradient id="paint6_linear_52_290" x1="52.2425" y1="6.11414" x2="52.2425" y2="11.2866" gradientUnits="userSpaceOnUse">
<stop stop-color="#0F3675"/>
<stop offset="1" stop-color="#0F3675" stop-opacity="0.63"/>
</linearGradient>
<linearGradient id="paint7_linear_52_290" x1="52.2443" y1="73.7134" x2="52.2443" y2="78.8857" gradientUnits="userSpaceOnUse">
<stop stop-color="#0F3675"/>
<stop offset="1" stop-color="#0F3675" stop-opacity="0.63"/>
</linearGradient>
<linearGradient id="paint8_linear_52_290" x1="67.3816" y1="62.7004" x2="67.3816" y2="71.9596" gradientUnits="userSpaceOnUse">
<stop stop-color="#0F3675"/>
<stop offset="1" stop-color="#0F3675" stop-opacity="0.63"/>
</linearGradient>
<linearGradient id="paint9_linear_52_290" x1="76.3405" y1="46.7045" x2="76.3405" y2="57.6966" gradientUnits="userSpaceOnUse">
<stop stop-color="#0F3675"/>
<stop offset="1" stop-color="#0F3675" stop-opacity="0.63"/>
</linearGradient>
<linearGradient id="paint10_linear_52_290" x1="8.74414" y1="46.7045" x2="8.74414" y2="57.6966" gradientUnits="userSpaceOnUse">
<stop stop-color="#0F3675"/>
<stop offset="1" stop-color="#0F3675" stop-opacity="0.63"/>
</linearGradient>
<linearGradient id="paint11_linear_52_290" x1="17.7129" y1="62.7114" x2="17.7129" y2="71.9681" gradientUnits="userSpaceOnUse">
<stop stop-color="#0F3675"/>
<stop offset="1" stop-color="#0F3675" stop-opacity="0.63"/>
</linearGradient>
<linearGradient id="paint12_linear_52_290" x1="32.8418" y1="73.7134" x2="32.8418" y2="78.8857" gradientUnits="userSpaceOnUse">
<stop stop-color="#0F3675"/>
<stop offset="1" stop-color="#0F3675" stop-opacity="0.63"/>
</linearGradient>
<linearGradient id="paint13_linear_52_290" x1="32.8428" y1="6.11414" x2="32.8428" y2="11.2865" gradientUnits="userSpaceOnUse">
<stop stop-color="#0F3675"/>
<stop offset="1" stop-color="#0F3675" stop-opacity="0.63"/>
</linearGradient>
<linearGradient id="paint14_linear_52_290" x1="17.7034" y1="13.0408" x2="17.7034" y2="22.2997" gradientUnits="userSpaceOnUse">
<stop stop-color="#0F3675"/>
<stop offset="1" stop-color="#0F3675" stop-opacity="0.63"/>
</linearGradient>
<linearGradient id="paint15_linear_52_290" x1="8.74305" y1="27.3024" x2="8.74305" y2="38.2953" gradientUnits="userSpaceOnUse">
<stop stop-color="#0F3675"/>
<stop offset="1" stop-color="#0F3675" stop-opacity="0.63"/>
</linearGradient>
<linearGradient id="paint16_linear_52_290" x1="25.5425" y1="28.3324" x2="25.5425" y2="48.1667" gradientUnits="userSpaceOnUse">
<stop stop-color="#0F3675"/>
<stop offset="1" stop-color="#0F3675" stop-opacity="0.63"/>
</linearGradient>
<linearGradient id="paint17_linear_52_290" x1="36.8758" y1="28.3324" x2="36.8758" y2="48.1667" gradientUnits="userSpaceOnUse">
<stop stop-color="#0F3675"/>
<stop offset="1" stop-color="#0F3675" stop-opacity="0.63"/>
</linearGradient>
<linearGradient id="paint18_linear_52_290" x1="31.2099" y1="22.6656" x2="31.2099" y2="36.8334" gradientUnits="userSpaceOnUse">
<stop stop-color="#0F3675"/>
<stop offset="1" stop-color="#0F3675" stop-opacity="0.63"/>
</linearGradient>
<linearGradient id="paint19_linear_52_290" x1="48.2092" y1="28.3324" x2="48.2092" y2="48.1667" gradientUnits="userSpaceOnUse">
<stop stop-color="#0F3675"/>
<stop offset="1" stop-color="#0F3675" stop-opacity="0.63"/>
</linearGradient>
<linearGradient id="paint20_linear_52_290" x1="59.5425" y1="28.3324" x2="59.5425" y2="48.1667" gradientUnits="userSpaceOnUse">
<stop stop-color="#0F3675"/>
<stop offset="1" stop-color="#0F3675" stop-opacity="0.63"/>
</linearGradient>
<linearGradient id="paint21_linear_52_290" x1="53.8765" y1="22.6656" x2="53.8765" y2="36.8334" gradientUnits="userSpaceOnUse">
<stop stop-color="#0F3675"/>
<stop offset="1" stop-color="#0F3675" stop-opacity="0.63"/>
</linearGradient>
<linearGradient id="paint22_linear_52_290" x1="36.8758" y1="45.3324" x2="36.8758" y2="65.1667" gradientUnits="userSpaceOnUse">
<stop stop-color="#0F3675"/>
<stop offset="1" stop-color="#0F3675" stop-opacity="0.63"/>
</linearGradient>
<linearGradient id="paint23_linear_52_290" x1="48.2092" y1="45.3324" x2="48.2092" y2="65.1667" gradientUnits="userSpaceOnUse">
<stop stop-color="#0F3675"/>
<stop offset="1" stop-color="#0F3675" stop-opacity="0.63"/>
</linearGradient>
<linearGradient id="paint24_linear_52_290" x1="42.5432" y1="39.6655" x2="42.5432" y2="53.8333" gradientUnits="userSpaceOnUse">
<stop stop-color="#0F3675"/>
<stop offset="1" stop-color="#0F3675" stop-opacity="0.63"/>
</linearGradient>
<clipPath id="clip0_52_290">
<rect width="85" height="85" fill="white"/>
</clipPath>
</defs>
</svg>
