<svg width="117" height="117" viewBox="0 0 117 117" fill="none" xmlns="http://www.w3.org/2000/svg">
<g clip-path="url(#clip0_77_130)">
<path d="M111.954 79.5414C114.351 76.4831 115.501 73.2045 115.355 69.8281C115.208 66.1092 113.544 63.1976 112.174 61.4115C113.764 57.4479 114.376 51.2089 109.067 46.3645C105.176 42.8168 98.5704 41.2265 89.4199 41.6669C82.9851 41.9605 77.6024 43.1593 77.3822 43.2083H77.3577C76.1344 43.4285 74.8377 43.6976 73.5165 43.9912C73.4186 42.4253 73.6877 38.5351 76.5748 29.776C80.0002 19.3532 79.8044 11.377 75.9387 6.04329C71.8772 0.440402 65.3935 0 63.4851 0C61.6501 0 59.9619 0.758469 58.763 2.15307C56.0472 5.30928 56.3653 11.1324 56.7078 13.8237C53.4782 22.4849 44.4255 43.7221 36.7674 49.6186C36.6206 49.7164 36.4983 49.8388 36.3759 49.9611C34.125 52.3344 32.6081 54.9034 31.5804 57.1543C30.1369 56.3714 28.4976 55.931 26.736 55.931H11.8113C6.18396 55.931 1.63315 60.5063 1.63315 66.1092V105.868C1.63315 111.495 6.20843 116.046 11.8113 116.046H26.736C28.9136 116.046 30.9443 115.361 32.6081 114.186L38.3577 114.871C39.2385 114.994 54.8973 116.976 70.9719 116.657C73.8835 116.878 76.6237 117 79.1683 117C83.5478 117 87.3646 116.657 90.5453 115.972C98.0322 114.382 103.146 111.201 105.739 106.528C107.721 102.956 107.721 99.4084 107.403 97.1575C112.272 92.7534 113.128 87.8846 112.957 84.4592C112.859 82.4774 112.419 80.7892 111.954 79.5414ZM11.8113 109.44C9.82951 109.44 8.23917 107.825 8.23917 105.868V66.0847C8.23917 64.1029 9.85398 62.5125 11.8113 62.5125H26.736C28.7178 62.5125 30.3082 64.1273 30.3082 66.0847V105.843C30.3082 107.825 28.6934 109.415 26.736 109.415H11.8113V109.44ZM105.69 76.6788C104.663 77.7553 104.467 79.3946 105.25 80.6669C105.25 80.6913 106.253 82.404 106.375 84.7528C106.547 87.958 105.005 90.7961 101.776 93.2183C100.626 94.0991 100.161 95.6161 100.65 96.9862C100.65 97.0107 101.702 100.24 99.9895 103.299C98.3502 106.235 94.7047 108.339 89.1752 109.513C84.7467 110.467 78.7279 110.639 71.3389 110.051C71.2411 110.051 71.1187 110.051 70.9964 110.051C55.2643 110.394 39.3609 108.339 39.1896 108.314H39.1651L36.694 108.021C36.8408 107.336 36.9142 106.602 36.9142 105.868V66.0847C36.9142 65.0326 36.7429 64.005 36.4493 63.0508C36.8897 61.4115 38.1131 57.766 41.0001 54.6587C51.9857 45.9486 62.7266 16.564 63.1915 15.2917C63.3872 14.7779 63.4362 14.2152 63.3383 13.6524C62.9224 10.9122 63.0692 7.56023 63.6564 6.55709C64.9531 6.58156 68.4518 6.94856 70.556 9.8601C73.0516 13.3099 72.9537 19.4755 70.2624 27.6474C66.152 40.101 65.8094 46.6581 69.0635 49.5452C70.6783 50.9887 72.8314 51.0621 74.3973 50.4994C75.8897 50.1568 77.3088 49.8632 78.6545 49.643C78.7523 49.6186 78.8747 49.5941 78.9725 49.5696C86.4838 47.9304 99.9406 46.9272 104.614 51.1844C108.577 54.8055 105.764 59.601 105.446 60.1148C104.54 61.4849 104.809 63.271 106.033 64.372C106.057 64.3965 108.626 66.8187 108.749 70.0728C108.846 72.2503 107.819 74.4768 105.69 76.6788Z" fill="url(#paint0_linear_77_130)"/>
</g>
<defs>
<linearGradient id="paint0_linear_77_130" x1="58.5001" y1="0" x2="58.5001" y2="117" gradientUnits="userSpaceOnUse">
<stop stop-color="#E43149"/>
<stop offset="1" stop-color="#E43149" stop-opacity="0"/>
</linearGradient>
<clipPath id="clip0_77_130">
<rect width="117" height="117" fill="white"/>
</clipPath>
</defs>
</svg>
