<svg width="122" height="121" viewBox="0 0 122 121" fill="none" xmlns="http://www.w3.org/2000/svg">
<path d="M58.2388 68.003H47.0798M77.5485 53.3898C76.6225 51.9554 75.0104 51.0038 73.1751 51.0038H47.0798H66.3895C69.2647 51.0038 71.5962 48.6678 71.5962 45.787V39.2214C71.5962 36.3407 69.2647 34.0046 66.3895 34.0046H57.7853M15.6637 34.0046H10.07C7.19482 34.0046 4.86331 36.3407 4.86331 39.2214V45.787C4.86331 48.6678 7.19482 51.0038 10.07 51.0038L26.3716 51.0038H16.8556C13.9804 51.0038 11.6489 53.3398 11.6489 56.2206V62.7862C11.6489 65.667 13.9804 68.003 16.8556 68.003H26.3716H7.20672C4.33151 68.003 2 70.3367 2 73.2174V79.783C2 82.6662 4.33151 84.9998 7.20672 84.9998H53.2718L11.9553 84.9999C9.08006 84.9999 6.74856 87.3359 6.74856 90.2167V96.7823C6.74856 99.6631 9.08006 101.999 11.9553 101.999H57.5692H8.39388C5.51867 101.999 3.18717 104.335 3.18717 107.216V113.782C3.18717 116.662 5.51867 118.998 8.39388 118.998H64.7133C67.3511 118.998 69.533 117.031 69.8725 114.481M110.926 62.65C116.553 68.6351 120 76.6994 120 85.5677C120 104.032 105.061 119 86.6324 119C68.2056 119 53.2671 104.032 53.2671 85.5677C53.2671 67.1056 68.2056 52.1379 86.6324 52.1379C93.648 52.1379 100.158 54.3074 105.531 58.016M92.4348 74.955C92.4348 74.955 89.1332 72.442 84.0435 73.7071C79.3708 74.8687 78.21 80.145 81.3856 82.2003C83.2092 83.3804 85.9527 84.3508 89.6503 85.4293C97.9264 87.8431 94.867 97.4741 86.4486 97.5203C83.1634 97.5383 81.6275 97.3664 78.7416 95.8085M86.4487 70.1001V101.036M19.1278 45.3867C19.9113 45.6722 20.7661 45.8292 21.6754 45.8292H26.3717V73.35C26.3717 75.9287 28.4586 78.0197 31.0323 78.0197H42.4192C44.9929 78.0197 47.0798 75.9287 47.0798 73.35V45.8292H51.7737C57.4742 45.8292 61.038 39.6442 58.1865 34.6986L43.1386 8.58603C40.2871 3.64042 33.162 3.63804 30.3129 8.58365L15.2626 34.6986C14.2678 36.4256 14.0541 38.3025 14.4387 40.0129M109.164 85.5679C109.164 98.0354 99.077 108.142 86.6336 108.142C74.1899 108.142 64.1027 98.0354 64.1027 85.5679C64.1027 73.1004 74.1899 62.9934 86.6336 62.9934C99.077 62.9934 109.164 73.1004 109.164 85.5679ZM88.8554 38.8258L88.7193 38.3165C88.2388 36.5204 89.2286 34.6585 90.9844 34.0555L96.3841 32.2005C98.3182 31.5361 100.409 32.652 100.939 34.6307L101.277 35.8962C101.806 37.875 100.552 39.8891 98.5454 40.2826L92.9433 41.3814C91.1221 41.7387 89.3357 40.6218 88.8554 38.8258ZM80.2293 23.583L79.8572 23.2102C78.545 21.8955 78.473 19.7871 79.6922 18.3852L83.443 14.0738C84.7864 12.5295 87.1545 12.4481 88.6004 13.8966L89.5247 14.8232C90.9706 16.2716 90.8894 18.6443 89.348 19.9902L85.0447 23.7483C83.646 24.9701 81.5415 24.8978 80.2293 23.583ZM65.1521 14.7038L64.6438 14.5675C62.8515 14.086 61.7368 12.2964 62.0932 10.4716L63.1898 4.85871C63.5828 2.84811 65.5928 1.59137 67.5679 2.12161L68.8308 2.46084C70.8057 2.99084 71.9194 5.08636 71.2563 7.02417L69.4051 12.4344C68.8032 14.1933 66.9449 15.185 65.1521 14.7038Z" stroke="url(#paint0_linear_75_65)" stroke-width="4" stroke-miterlimit="10" stroke-linecap="round" stroke-linejoin="round"/>
<defs>
<linearGradient id="paint0_linear_75_65" x1="61" y1="2" x2="61" y2="119" gradientUnits="userSpaceOnUse">
<stop stop-color="#E43149"/>
<stop offset="1" stop-color="#E43149" stop-opacity="0"/>
</linearGradient>
</defs>
</svg>
