<svg width="35" height="35" viewBox="0 0 35 35" fill="none" xmlns="http://www.w3.org/2000/svg">
<g clip-path="url(#clip0_127_648)">
<path d="M17.5 0C7.68687 0 0 7.68687 0 17.5C0 27.3473 7.72188 35 17.5 35C27.2906 35 35 27.3332 35 17.5C35 7.68687 27.3131 0 17.5 0ZM17.5 32.2656C14.2876 32.2656 11.3455 31.2888 8.94722 29.6102C10.5565 26.4189 13.8752 24.3359 17.5001 24.3359C21.1249 24.3359 24.4435 26.4189 26.0528 29.6101C23.6545 31.2888 20.7125 32.2656 17.5 32.2656ZM28.1805 27.7902C27.2915 26.2366 26.0714 24.8933 24.5846 23.8446C22.5039 22.3772 20.0541 21.6016 17.5001 21.6016C14.946 21.6016 12.4962 22.3772 10.4154 23.8446C8.92862 24.8933 7.70855 26.2366 6.81946 27.7903C4.27793 25.1498 2.73438 21.5385 2.73438 17.5C2.73438 9.22024 9.22024 2.73438 17.5 2.73438C25.7798 2.73438 32.2656 9.22024 32.2656 17.5C32.2656 21.5385 30.7221 25.1497 28.1805 27.7902ZM17.5 7.92969C13.7306 7.92969 10.6641 10.9963 10.6641 14.7656C10.6641 18.535 13.7306 21.6016 17.5 21.6016C21.2694 21.6016 24.3359 18.535 24.3359 14.7656C24.3359 10.9963 21.2694 7.92969 17.5 7.92969ZM17.5 18.8672C15.2384 18.8672 13.3984 17.0272 13.3984 14.7656C13.3984 12.504 15.2384 10.6641 17.5 10.6641C19.7616 10.6641 21.6016 12.504 21.6016 14.7656C21.6016 17.0272 19.7616 18.8672 17.5 18.8672Z" fill="url(#paint0_linear_127_648)"/>
</g>
<defs>
<linearGradient id="paint0_linear_127_648" x1="0" y1="17.5" x2="35" y2="17.5" gradientUnits="userSpaceOnUse">
<stop stop-color="#5797FF"/>
<stop offset="1" stop-color="#D17FF7"/>
</linearGradient>
<clipPath id="clip0_127_648">
<rect width="35" height="35" fill="white"/>
</clipPath>
</defs>
</svg>
